<svg width="60" height="68" viewBox="0 0 60 68" fill="none" xmlns="http://www.w3.org/2000/svg">
<path d="M24.948 24.232C24.156 24.352 23.568 24.556 23.184 24.844C22.824 25.132 22.572 25.588 22.428 26.212C22.308 26.836 22.248 27.76 22.248 28.984V49.072L21.384 49.036L20.412 49.072L4.788 29.272V43.096C4.788 44.512 4.86 45.556 5.004 46.228C5.148 46.876 5.46 47.356 5.94 47.668C6.42 47.956 7.2 48.16 8.28 48.28V49C7.344 48.928 6.048 48.892 4.392 48.892C3.072 48.892 2.028 48.928 1.26 49V48.28C2.052 48.16 2.628 47.956 2.988 47.668C3.372 47.38 3.624 46.924 3.744 46.3C3.888 45.676 3.96 44.752 3.96 43.528V27.328C3.96 26.416 3.888 25.756 3.744 25.348C3.624 24.94 3.372 24.664 2.988 24.52C2.628 24.376 2.052 24.28 1.26 24.232V23.512C2.028 23.584 3.072 23.62 4.392 23.62C5.592 23.62 6.624 23.584 7.488 23.512L21.42 40.684V29.416C21.42 28 21.348 26.968 21.204 26.32C21.06 25.648 20.748 25.168 20.268 24.88C19.788 24.568 19.008 24.352 17.928 24.232V23.512C18.864 23.584 20.16 23.62 21.816 23.62C23.16 23.62 24.204 23.584 24.948 23.512V24.232ZM49.0925 23.512C48.9245 25.792 48.8405 27.832 48.8405 29.632C48.8405 30.76 48.8765 31.672 48.9485 32.368H48.1205C47.5445 29.416 46.7525 27.34 45.7445 26.14C44.7605 24.94 43.4045 24.34 41.6765 24.34H40.8485V44.896C40.8485 45.904 40.9445 46.636 41.1365 47.092C41.3525 47.548 41.7125 47.86 42.2165 48.028C42.7445 48.172 43.5725 48.256 44.7005 48.28V49C41.6765 48.928 39.3965 48.892 37.8605 48.892C36.3485 48.892 34.1525 48.928 31.2725 49V48.28C32.4005 48.256 33.2165 48.172 33.7205 48.028C34.2485 47.86 34.6085 47.548 34.8005 47.092C35.0165 46.636 35.1245 45.904 35.1245 44.896V24.34H34.3325C33.1805 24.34 32.1965 24.592 31.3805 25.096C30.5885 25.6 29.9045 26.44 29.3285 27.616C28.7525 28.768 28.2605 30.352 27.8525 32.368H27.0245C27.0965 31.672 27.1325 30.76 27.1325 29.632C27.1325 27.832 27.0485 25.792 26.8805 23.512C29.0645 23.584 32.7725 23.62 38.0045 23.62C43.2365 23.62 46.9325 23.584 49.0925 23.512Z" fill="white"/>
<path d="M54.8873 43.96C55.8233 43.96 56.5673 44.212 57.1193 44.716C57.6713 45.196 57.9473 45.868 57.9473 46.732C57.9473 47.596 57.6713 48.28 57.1193 48.784C56.5673 49.264 55.8233 49.504 54.8873 49.504C53.9513 49.504 53.2073 49.264 52.6553 48.784C52.1033 48.28 51.8273 47.596 51.8273 46.732C51.8273 45.868 52.1033 45.196 52.6553 44.716C53.2073 44.212 53.9513 43.96 54.8873 43.96Z" fill="#41EAD4"/>
</svg>
